<?xml version="1.0" encoding="utf-8"?>
<svg version="1.1" xmlns="http://www.w3.org/2000/svg" viewBox="0 0 560 288" xml:space="preserve">
	<g id="hi_nerd">
		<g>
			<path d="M120.52,161.46c-0.34,0-0.68,0-1.03,0c-1.25-0.73-2.5-1.47-3.76-2.19c-6.48-3.73-12.96-7.45-19.45-11.17
				c-0.28-0.16-0.41-0.36-0.41-0.69c0.01-8.99,0.01-17.97,0-26.96c0-0.31,0.09-0.51,0.37-0.67c7.75-4.47,15.5-8.95,23.25-13.43
				c0.36-0.21,0.64-0.21,1,0c7.74,4.49,15.5,8.96,23.25,13.44c0.26,0.15,0.37,0.34,0.37,0.64c0,9.01-0.01,18.02,0,27.03
				c0,0.34-0.16,0.52-0.44,0.68 M120.19,161.25"/>
			<path fill="#F67280" d="M97.97,120.45c0.97-0.56,1.9-1.1,2.82-1.63c6.28-3.63,12.56-7.26,18.84-10.89
				c0.27-0.15,0.46-0.16,0.73-0.01c7.11,4.12,14.23,8.23,21.35,12.35c0.1,0.06,0.19,0.12,0.32,0.2c-1.04,0.6-2.04,1.18-3.04,1.76
				c-6.23,3.6-12.46,7.2-18.69,10.81c-0.23,0.13-0.38,0.13-0.61,0c-7.12-4.13-14.25-8.25-21.37-12.38
				C98.22,120.6,98.12,120.54,97.97,120.45z"/>
			<path fill="#6C5B7B" d="M120.72,135.02c0-0.31,0.11-0.51,0.37-0.66c7.12-4.11,14.24-8.22,21.35-12.33
				c0.08-0.05,0.17-0.09,0.32-0.16c0,0.18,0,0.3,0,0.41c0,8.23,0,16.46,0,24.69c0,0.24-0.05,0.38-0.28,0.51
				c-7.1,4.07-14.2,8.15-21.29,12.23c-0.14,0.08-0.27,0.15-0.45,0.25"/>
			<path fill="#C06C84" d="M97.26,121.87c0.15,0.08,0.26,0.14,0.37,0.2c7.13,4.12,14.25,8.25,21.38,12.36
				c0.2,0.11,0.29,0.23,0.29,0.47c-0.01,8.25-0.01,16.51-0.01,24.76c0,0.08,0,0.16,0,0.3c-0.13-0.07-0.23-0.11-0.32-0.16
				c-7.16-4.11-14.31-8.23-21.47-12.34c-0.18-0.1-0.25-0.21-0.25-0.42"/>
		</g>
		<line fill="none" stroke="#6C5B7B" stroke-width="4" stroke-miterlimit="10" x1="93" y1="163" x2="426" y2="163"/>
		<g>
			<path fill="#B3B3B3" d="M157.66,123.28v4.22c1.15-2.81,3.49-4.22,7.03-4.22c7.73,0,11.6,5.27,11.6,15.82v3.52
				c0,10.55-3.98,15.82-11.95,15.82c-3.3,0-5.53-1.41-6.68-4.22v18.28h-10.55v-49.22H157.66z M157.66,147.18
				c1.15,1.64,2.79,2.46,4.92,2.46c2.11,0,3.16-1.76,3.16-5.27v-6.68c0-3.52-1.05-5.27-3.16-5.27c-2.13,0-3.77,0.82-4.92,2.46V147.18
				z"/>
			<path fill="#B3B3B3" d="M209.28,144.72h-17.58c0.21,3.75,1.73,5.63,4.57,5.63c3.28,0,5.51-0.94,6.68-2.81l6.64,5.63
				c-2.72,3.98-7.16,5.98-13.32,5.98c-9.98,0-15.02-5.27-15.12-15.82v-4.92c0.09-10.55,4.9-15.82,14.41-15.82
				c9.14,0,13.71,5.04,13.71,15.12V144.72z M198.74,137.34c-0.12-3.98-1.17-5.98-3.16-5.98c-2.39,0-3.68,1.99-3.87,5.98H198.74z"/>
			<path fill="#B3B3B3" d="M224.7,158.43h-10.55v-35.16h10.55v4.22c1.15-2.81,3.38-4.22,6.68-4.22c7.97,0,11.95,5.27,11.95,15.82
				v19.34h-10.55V139.1c0-4.69-1.05-7.03-3.16-7.03c-2.13,0-3.77,0.82-4.92,2.46V158.43z"/>
			<path fill="#B3B3B3" d="M279.85,128.9v10.2c0,12.89-5.86,19.34-17.58,19.34h-14.06v-49.22h14.06
				C273.99,109.22,279.85,115.78,279.85,128.9z M262.27,118h-3.52v31.64h3.52c4.69,0,7.03-3.52,7.03-10.55v-10.2
				C269.3,121.64,266.96,118,262.27,118z"/>
			<path fill="#B3B3B3" d="M304.41,123.28c2.37,0,4.56,0.6,6.57,1.79l-2.04,8.09c-1.22-0.73-2.73-1.09-4.54-1.09
				c-3.75,0-6.8,1.17-9.14,3.52v22.85h-10.55v-35.16h10.55v5.27C297.61,125.04,300.66,123.28,304.41,123.28z"/>
			<path fill="#B3B3B3" d="M340.88,144.72h-17.58c0.21,3.75,1.73,5.63,4.57,5.63c3.28,0,5.51-0.94,6.68-2.81l6.64,5.63
				c-2.72,3.98-7.16,5.98-13.32,5.98c-9.98,0-15.02-5.27-15.12-15.82v-4.92c0.09-10.55,4.9-15.82,14.41-15.82
				c9.14,0,13.71,5.04,13.71,15.12V144.72z M330.34,137.34c-0.12-3.98-1.17-5.98-3.16-5.98c-2.39,0-3.68,1.99-3.87,5.98H330.34z"/>
			<path fill="#B3B3B3" d="M345.02,128.2c4.2-3.75,8.65-5.63,13.36-5.63c9.38,0,14.06,4.92,14.06,14.77v14.06
				c0,2.3,0.59,4.64,1.76,7.03h-10.55c-0.77-1.55-1.3-3.09-1.58-4.64c-1.69,3.56-4.68,5.34-8.96,5.34c-5.86,0-8.79-3.52-8.79-10.55
				c0-7.5,4.69-11.25,14.06-11.25h3.52c0-3.98-1.17-5.98-3.52-5.98c-3.52,0-6.45,1.17-8.79,3.52L345.02,128.2z M357.67,151.05
				c2.11,0,3.52-0.82,4.22-2.46v-3.52h-4.22c-1.88,0-2.81,1.17-2.81,3.52C354.86,150.23,355.8,151.05,357.67,151.05z"/>
			<path fill="#B3B3B3" d="M388.22,158.43h-10.55v-35.16h10.55v4.22c1.15-2.81,3.38-4.22,6.68-4.22c3.98,0,6.98,1.34,9,4.01
				c2.53-2.67,5.74-4.01,9.63-4.01c7.97,0,11.95,5.27,11.95,15.82v19.34h-10.55v-21.09c0-3.52-1.05-5.27-3.16-5.27
				c-2.13,0-3.77,0.82-4.92,2.46v23.91H396.3v-21.09c0-3.52-1.05-5.27-3.16-5.27c-2.13,0-3.77,0.82-4.92,2.46V158.43z"/>
		</g>
		<path fill="#aaaaaa" d="M131.8,148.49c-1.41,0.81-2.12-0.39-2.13-3.62l-0.02-5.33c-0.01-3.34,0.69-5.42,2.1-6.23
			c1.4-0.81,2.11,0.46,2.12,3.79l0.02,5.33C133.9,145.66,133.2,147.68,131.8,148.49 M131.75,129.27
			c-4.22,2.44-6.32,6.67-6.3,12.7l0.02,5.33c0.02,5.92,2.13,7.67,6.35,5.23c4.21-2.43,6.32-6.62,6.3-12.54l-0.02-5.33
			C138.08,128.63,135.96,126.83,131.75,129.27"/>
	</g>
</svg>
